<mxfile host="app.diagrams.net" modified="2023-09-13T17:23:19.616Z" agent="Mozilla/5.0 (X11; Linux x86_64) AppleWebKit/537.36 (KHTML, like Gecko) Chrome/116.0.0.0 Safari/537.36" version="21.7.5" etag="myJsh0xIny_c-bBYFtFI" type="github">
  <diagram name="Page-1" id="Xc6v0h0Ery_hm3xCrEde">
    <mxGraphModel>
      <root>
        <mxCell id="0" />
        <mxCell id="1" parent="0" />
      </root>
    </mxGraphModel>
  </diagram>
</mxfile>
